<?xml version="1.0" encoding="UTF-8"?>
<svg id="Camada_1" data-name="Camada 1" xmlns="http://www.w3.org/2000/svg" xmlns:xlink="http://www.w3.org/1999/xlink" viewBox="0 0 52 52">
  <defs>
    <style>
      .cls-1 {
        fill: url(#Gradiente_sem_nome_109);
      }

      .cls-2 {
        fill: url(#Gradiente_sem_nome_109-3);
      }

      .cls-3 {
        fill: url(#Gradiente_sem_nome_109-4);
      }

      .cls-4 {
        fill: url(#Gradiente_sem_nome_109-2);
      }
    </style>
    <linearGradient id="Gradiente_sem_nome_109" data-name="Gradiente sem nome 109" x1="22.4" y1="49.75" x2="36.1" y2="12.1" gradientUnits="userSpaceOnUse">
      <stop offset="0" stop-color="lime"/>
      <stop offset="1" stop-color="#a3ffa3"/>
    </linearGradient>
    <linearGradient id="Gradiente_sem_nome_109-2" data-name="Gradiente sem nome 109" x1="37.31" y1="15.74" x2="41.99" y2="2.9" xlink:href="#Gradiente_sem_nome_109"/>
    <linearGradient id="Gradiente_sem_nome_109-3" data-name="Gradiente sem nome 109" x1="4.63" y1="34.74" x2="7.04" y2="28.1" xlink:href="#Gradiente_sem_nome_109"/>
    <linearGradient id="Gradiente_sem_nome_109-4" data-name="Gradiente sem nome 109" x1="27.67" y1="40.7" x2="30.1" y2="34.04" xlink:href="#Gradiente_sem_nome_109"/>
  </defs>
  <path class="cls-1" d="m10.18,31.89c.26-4.32,2.07-7.52,5.66-9.61,2.11-1.23,4.43-1.64,6.85-1.24,1.9.31,3.78.77,5.68,1.08,2.09.35,4.19.54,6.31.22,1.07-.16,2.1-.44,2.99-1.08.17-.12.25-.37.37-.56-.19-.11-.37-.3-.57-.32-1.71-.21-3.4-.48-5.04-1-2.32-.73-4.44-1.8-6.1-3.63-1.96-2.15-2.88-4.7-2.78-7.61.02-.45.29-.58.73-.33,1.18.66,2.35,1.33,3.53,1.99,6.41,3.62,12.82,7.24,19.24,10.84.97.54,1.65,1.29,2.01,2.34.26.74.59,1.46.83,2.21.14.43.21.91.2,1.36-.02.99-.76,1.71-1.74,1.78-2.14.14-4.27.27-6.41.41-2.36.15-3.98,1.33-4.84,3.52-.12.3-.23.61-.34.91-.22.59-.17.69.41.91,1.74.65,3.48,1.29,5.22,1.93.55.2.97.52,1.05,1.14.1.74-.25,1.26-1.05,1.56-1.6.59-3.19,1.18-4.79,1.77-1.15.42-2.29.86-3.45,1.27-.48.17-.76.47-.94.94-.98,2.69-1.98,5.38-2.98,8.07-.07.2-.15.4-.26.57-.53.87-1.83.87-2.3-.03-.29-.56-.48-1.17-.71-1.76-.75-2-1.49-4-2.21-6.01-.17-.46-.41-.61-.9-.62-1.48-.02-2.97.02-4.43-.18-4.56-.63-8.37-4.48-9.05-9.04-.1-.67-.14-1.34-.19-1.82Zm18.74-4.06c-.06,0-.13,0-.19,0-.12.18-.29.34-.36.54-.71,1.87-1.4,3.74-2.09,5.61-.16.43-.42.7-.85.86-1.53.55-3.06,1.13-4.59,1.69-.4.15-.8.27-1.18.45-.14.07-.3.26-.3.39,0,.13.18.28.31.4.08.07.21.08.31.12,1.81.67,3.61,1.35,5.42,2.01.47.17.75.46.91.91.37,1.05.77,2.08,1.15,3.12.31.84.61,1.69.95,2.53.07.16.27.34.44.36.12.01.27-.22.4-.35.04-.05.05-.13.08-.19.68-1.83,1.36-3.66,2.03-5.5.16-.44.43-.72.88-.88,1.52-.55,3.04-1.12,4.55-1.68.4-.15.8-.27,1.18-.45.14-.07.32-.26.31-.38-.01-.15-.19-.3-.32-.43-.05-.05-.15-.06-.23-.09-1.75-.65-3.5-1.32-5.27-1.93-.64-.22-.99-.59-1.21-1.22-.63-1.79-1.3-3.56-1.97-5.34-.08-.2-.24-.37-.36-.55Zm16.7-3.27c.51.01.89-.14,1.02-.45.19-.43-.05-.75-.3-1.07-.04-.05-.09-.11-.14-.15-.77-.66-1.68-1.01-2.65-1.22-.55-.12-.78.18-.64.74.3,1.19,1.48,2.12,2.72,2.15Z"/>
  <path class="cls-4" d="m34.02,0c.19.21.35.35.45.51,1.42,2.2,2.83,4.41,4.24,6.61,2.27,3.54,4.54,7.09,6.8,10.63.07.11.17.21.19.32.02.15.04.36-.05.45-.09.09-.31.11-.45.07-.23-.07-.44-.19-.64-.32-2.11-1.3-4.27-2.52-6.3-3.93-2-1.38-3.65-3.13-4.74-5.35-1.41-2.88-1.39-5.74.09-8.59.07-.14.23-.24.41-.42Z"/>
  <path class="cls-2" d="m9.47,31.64c-.04,1.22-.35,2.39-1.55,3.07-.4.23-.9.36-1.36.37-1.54.02-2.86-.58-3.88-1.73-1.11-1.25-1.01-2.61.21-3.77.82-.77,1.79-1.26,2.9-1.44,1.97-.32,3.47.87,3.64,2.86.02.2.02.39.03.65Z"/>
  <path class="cls-3" d="m32.72,37.35c-.2.12-.3.21-.42.25-.64.24-1.29.48-1.94.71-.29.1-.47.26-.57.56-.21.63-.45,1.24-.69,1.86-.06.14-.18.26-.27.39-.1-.14-.23-.26-.29-.41-.24-.61-.44-1.25-.71-1.85-.1-.22-.31-.44-.53-.53-.64-.28-1.32-.49-1.97-.74-.11-.04-.19-.14-.28-.22.1-.09.18-.21.29-.25.65-.26,1.32-.48,1.97-.76.22-.1.44-.31.53-.52.28-.63.48-1.29.73-1.93.05-.13.18-.22.27-.33.08.11.19.2.24.32.25.64.5,1.28.72,1.93.1.3.28.46.57.56.65.22,1.29.47,1.94.72.12.05.22.13.42.24Z"/>
</svg>