<?xml version="1.0" encoding="UTF-8"?>
<svg id="Camada_2" data-name="Camada 2" xmlns="http://www.w3.org/2000/svg" xmlns:xlink="http://www.w3.org/1999/xlink" viewBox="0 0 200 200">
  <defs>
    <linearGradient id="Gradiente_sem_nome_109" data-name="Gradiente sem nome 109" x1="78.46" y1="190.58" x2="130.96" y2="46.35" gradientUnits="userSpaceOnUse">
      <stop offset="0" stop-color="lime"/>
      <stop offset="1" stop-color="#a3ffa3"/>
    </linearGradient>
    <linearGradient id="Gradiente_sem_nome_109-6" data-name="Gradiente sem nome 109" x1="135.61" y1="60.29" x2="153.51" y2="11.1" xlink:href="#Gradiente_sem_nome_109"/>
    <linearGradient id="Gradiente_sem_nome_109-7" data-name="Gradiente sem nome 109" x1="10.4" y1="133.08" x2="19.66" y2="107.64" xlink:href="#Gradiente_sem_nome_109"/>
    <linearGradient id="Gradiente_sem_nome_109-8" data-name="Gradiente sem nome 109" x1="98.66" y1="155.92" x2="107.96" y2="130.38" xlink:href="#Gradiente_sem_nome_109"/>
  </defs>
  <g id="Camada_1-2" data-name="Camada 1">
    <g>
      <path fill="url(#Gradiente_sem_nome_109)" d="m31.68,122.17c1.01-16.54,7.95-28.8,21.7-36.82,8.09-4.72,16.97-6.28,26.23-4.76,7.28,1.19,14.47,2.94,21.76,4.15,8,1.33,16.07,2.06,24.17.83,4.09-.62,8.03-1.7,11.44-4.14.65-.46.95-1.41,1.42-2.13-.72-.43-1.41-1.15-2.18-1.24-6.54-.79-13.03-1.85-19.32-3.84-8.87-2.8-17.01-6.91-23.36-13.89-7.49-8.23-11.03-17.99-10.66-29.13.06-1.74,1.1-2.21,2.8-1.25,4.52,2.53,9.02,5.08,13.52,7.63,24.56,13.85,49.11,27.72,73.69,41.53,3.71,2.08,6.31,4.93,7.69,8.96.98,2.85,2.27,5.59,3.18,8.46.53,1.66.81,3.48.78,5.23-.08,3.8-2.9,6.56-6.68,6.8-8.19.54-16.37,1.05-24.56,1.57-9.05.57-15.23,5.09-18.55,13.5-.45,1.15-.87,2.32-1.3,3.48-.83,2.28-.67,2.65,1.56,3.48,6.67,2.47,13.34,4.95,20.01,7.4,2.11.78,3.7,2.01,4.03,4.38.4,2.84-.95,4.84-4.03,5.98-6.11,2.27-12.23,4.53-18.34,6.79-4.4,1.63-8.78,3.3-13.2,4.85-1.84.65-2.93,1.79-3.59,3.61-3.76,10.32-7.59,20.61-11.41,30.91-.28.75-.58,1.52-.99,2.2-2.02,3.34-6.99,3.35-8.82-.1-1.13-2.13-1.86-4.47-2.7-6.74-2.85-7.67-5.72-15.33-8.48-23.03-.63-1.77-1.59-2.34-3.45-2.36-5.66-.08-11.38.09-16.96-.69-17.49-2.42-32.07-17.18-34.68-34.64-.38-2.55-.53-5.13-.72-6.97Zm71.8-15.54c-.24,0-.49-.01-.73-.02-.47.69-1.09,1.31-1.38,2.07-2.7,7.15-5.38,14.31-7.99,21.49-.6,1.66-1.61,2.69-3.27,3.29-5.88,2.12-11.73,4.31-17.59,6.48-1.52.56-3.07,1.04-4.53,1.72-.54.25-1.16.99-1.16,1.5,0,.51.68,1.09,1.17,1.52.3.27.79.31,1.2.46,6.92,2.57,13.82,5.19,20.76,7.69,1.79.65,2.86,1.74,3.49,3.49,1.43,4,2.94,7.98,4.41,11.97,1.2,3.23,2.34,6.48,3.63,9.67.25.62,1.05,1.31,1.67,1.38.45.05,1.04-.83,1.52-1.34.17-.18.21-.49.3-.74,2.6-7.02,5.22-14.02,7.78-21.06.62-1.7,1.66-2.76,3.39-3.38,5.83-2.09,11.63-4.28,17.44-6.43,1.52-.56,3.07-1.04,4.53-1.72.54-.25,1.24-.99,1.2-1.45-.05-.58-.74-1.14-1.23-1.64-.2-.21-.59-.24-.89-.35-6.72-2.48-13.41-5.06-20.18-7.4-2.43-.84-3.79-2.25-4.63-4.66-2.4-6.86-4.98-13.65-7.55-20.45-.29-.76-.9-1.4-1.36-2.1Zm63.98-12.54c1.97.05,3.4-.55,3.91-1.71.72-1.65-.21-2.89-1.16-4.09-.17-.21-.35-.41-.55-.59-2.94-2.52-6.45-3.87-10.15-4.69-2.12-.47-3,.69-2.46,2.83,1.13,4.55,5.67,8.13,10.42,8.24Z"/>
      <path fill="url(#Gradiente_sem_nome_109-6)" d="m123,0c.73.82,1.32,1.33,1.73,1.97,5.42,8.43,10.82,16.88,16.23,25.32,8.69,13.57,17.38,27.15,26.06,40.72.26.41.66.8.73,1.24.09.58.14,1.39-.19,1.74-.33.35-1.19.44-1.72.28-.86-.25-1.67-.74-2.45-1.22-8.07-4.98-16.34-9.66-24.14-15.04-7.65-5.28-14-12-18.16-20.5-5.39-11.02-5.33-21.99.35-32.89.28-.55.88-.93,1.55-1.62Z"/>
      <path fill="url(#Gradiente_sem_nome_109-7)" d="m28.94,121.22c-.16,4.68-1.35,9.14-5.94,11.75-1.52.86-3.45,1.39-5.21,1.41-5.92.09-10.96-2.22-14.85-6.63-4.24-4.8-3.86-9.99.82-14.42,3.13-2.97,6.85-4.84,11.11-5.53,7.55-1.22,13.31,3.31,13.94,10.95.06.75.08,1.51.13,2.48Z"/>
      <path fill="url(#Gradiente_sem_nome_109-8)" d="m118.01,143.08c-.76.46-1.15.8-1.61.97-2.47.93-4.94,1.86-7.43,2.72-1.1.38-1.79,1.01-2.17,2.16-.8,2.4-1.71,4.76-2.63,7.11-.22.55-.69,1-1.04,1.5-.38-.53-.9-1-1.13-1.59-.94-2.35-1.69-4.77-2.72-7.08-.37-.83-1.2-1.68-2.03-2.04-2.46-1.07-5.04-1.89-7.55-2.85-.41-.16-.72-.55-1.08-.83.37-.33.68-.79,1.11-.96,2.5-.99,5.07-1.83,7.53-2.91.83-.36,1.67-1.19,2.03-2.01,1.06-2.41,1.85-4.94,2.81-7.39.19-.48.69-.84,1.04-1.26.31.4.72.76.9,1.22.96,2.45,1.92,4.91,2.77,7.41.39,1.14,1.06,1.76,2.18,2.14,2.49.86,4.96,1.81,7.42,2.76.45.17.86.49,1.61.93Z"/>
    </g>
  </g>
</svg> 